<?xml version="1.0" encoding="utf-8"?>
<!-- Generator: Adobe Illustrator 25.0.0, SVG Export Plug-In . SVG Version: 6.00 Build 0)  -->
<svg version="1.1" id="People" xmlns="http://www.w3.org/2000/svg" xmlns:xlink="http://www.w3.org/1999/xlink" x="0px" y="0px"
	 viewBox="0 0 183.2 32.7" style="enable-background:new 0 0 183.2 32.7;" xml:space="preserve">
<style type="text/css">
	.st0{fill:#FFFFFF;}
</style>
<g>
	<g>
		<g>
			<path class="st0" d="M5.8,5c0,2.2,1.8,3.9,3.9,3.9c1.8,0,3.3-1.2,3.8-2.9h3.7l1.7,2.9h13v-2H20.1L18.3,4h-4.9
				c-0.5-1.7-2-2.9-3.8-2.9C7.5,1.1,5.8,2.8,5.8,5z M11.6,5c0,1-0.8,1.9-1.9,1.9c-1,0-1.9-0.8-1.9-1.9c0-1,0.8-1.9,1.9-1.9
				C10.7,3.1,11.6,3.9,11.6,5z"/>
		</g>
	</g>
	<g>
		<g>
			<path class="st0" d="M0,19.1C0,21.3,1.8,23,3.9,23c1.8,0,3.3-1.2,3.8-2.9h2.1l1.4,2.9h8.9l1.1-2.3h10.7v-2h-12L18.8,21h-6.4
				L11,18.1H7.6c-0.5-1.7-2-2.9-3.8-2.9C1.7,15.2,0,17,0,19.1z M5.8,19.1c0,1-0.8,1.9-1.9,1.9S2,20.2,2,19.1s0.8-1.9,1.9-1.9
				C4.9,17.2,5.8,18.1,5.8,19.1z"/>
		</g>
	</g>
	<g>
		<g>
			<path class="st0" d="M22.8,27.8h-8.2c-0.5-1.7-2-2.9-3.8-2.9c-2.2,0-3.9,1.8-3.9,3.9s1.8,3.9,3.9,3.9c1.8,0,3.3-1.2,3.8-2.9h9.5
				l1.7-3.6h6v-2h-7.2L22.8,27.8z M10.8,30.7c-1,0-1.9-0.8-1.9-1.9s0.8-1.9,1.9-1.9c1.1,0,1.9,0.8,1.9,1.9
				C12.7,29.8,11.8,30.7,10.8,30.7z"/>
		</g>
	</g>
	<g>
		<g>
			<path class="st0" d="M12.7,13.2c0,2.2,1.8,3.9,3.9,3.9c1.8,0,3.3-1.2,3.8-2.9h11.5v-2H20.4c-0.5-1.7-2-2.9-3.8-2.9
				C14.4,9.3,12.7,11,12.7,13.2z M18.5,13.2c0,1-0.8,1.9-1.9,1.9s-1.9-0.8-1.9-1.9s0.8-1.9,1.9-1.9C17.6,11.3,18.5,12.2,18.5,13.2z"
				/>
		</g>
	</g>
</g>
<g>
	<g>
		<path class="st0" d="M35.6,6.8h2.9v19.5h-2.9V6.8z"/>
		<path class="st0" d="M43.3,11.8H46v1.8c0.3-1.4,1.9-2.1,4.8-2.1c1.9,0,3.2,0.3,3.9,1c0.8,0.7,1.1,1.7,1.1,3.2v10.7h-2.7V15.8
			c0-0.4,0-0.7-0.1-0.9s-0.2-0.5-0.4-0.7c-0.4-0.5-1.3-0.8-2.7-0.8c-1.1,0-1.9,0.1-2.4,0.2c-0.6,0.2-1,0.4-1.2,0.7S46,15.1,46,15.7
			v10.5h-2.7L43.3,11.8L43.3,11.8z"/>
		<path class="st0" d="M63.7,26.2c-0.7-0.3-1.2-0.7-1.5-1.4s-0.5-1.6-0.5-2.8v-8.5h-3.2v-1.8h3.2V7.3h2.7v4.5h5.2v1.8h-5.2v8.7
			c0,0.7,0.1,1.3,0.2,1.6s0.5,0.6,0.9,0.8c0.4,0.2,1.1,0.2,1.9,0.2c0.3,0,1-0.1,2.2-0.2v1.8c-1,0.2-2,0.2-3,0.2
			C65.4,26.6,64.4,26.5,63.7,26.2z"/>
		<path class="st0" d="M72,22.2v-5.7c0-1.8,0.5-3,1.5-3.8s2.6-1.2,4.9-1.2c2.1,0,3.7,0.4,4.6,1.1s1.4,2,1.4,3.8v3.2h-9.8v2.2
			c0,1,0.3,1.7,1.1,2.2c0.7,0.4,1.8,0.7,3.2,0.7c1.4,0,3-0.2,4.9-0.7v2c-1.8,0.4-3.6,0.6-5.2,0.6C74.3,26.6,72,25.1,72,22.2z
			 M81.8,17.9v-2.3c0-0.9-0.3-1.5-0.8-1.8s-1.4-0.5-2.7-0.5c-1.2,0-2.1,0.2-2.7,0.5s-0.8,0.9-0.8,1.8v2.3H81.8z"/>
		<path class="st0" d="M88.6,5.3h2.7v21h-2.7V5.3z"/>
		<path class="st0" d="M96,5.3h2.7v21H96V5.3z"/>
		<path class="st0" d="M103.4,6.5h2.7v2.8h-2.7V6.5z M103.4,11.8h2.7v14.5h-2.7V11.8z"/>
		<path class="st0" d="M116.9,26.5c-0.7-0.1-1.5-0.2-2.2-0.5c-0.9-0.2-1.6-0.5-2.2-0.9c-0.6-0.4-1.1-0.9-1.5-1.5
			c-0.4-0.7-0.6-1.4-0.6-2.3v-9.2c0-1.1,0.3-2.1,0.9-2.9c0.6-0.8,1.4-1.4,2.4-1.7c1-0.3,1.9-0.6,2.8-0.7s1.9-0.2,2.9-0.2
			c2.5,0,4.7,0.2,6.7,0.5v2.2c-0.8-0.2-1.9-0.3-3.2-0.5c-1.4-0.2-2.6-0.2-3.4-0.2c-4.1,0-6.1,1.2-6.1,3.5v9.2c0,0.6,0.2,1.2,0.6,1.7
			c0.4,0.5,0.9,0.8,1.6,1c0.6,0.2,1.3,0.4,1.9,0.5s1.4,0.1,2.2,0.1c1.3,0,2.8-0.2,4.3-0.5v-6.8h-4.6v-2h7.3v10.5
			c-2.6,0.6-5,0.9-7.2,0.9C118.4,26.6,117.6,26.6,116.9,26.5z"/>
		<path class="st0" d="M130.2,22.2v-5.7c0-1.8,0.5-3,1.5-3.8s2.6-1.2,4.9-1.2c2.1,0,3.7,0.4,4.6,1.1s1.4,2,1.4,3.8v3.2h-9.8v2.2
			c0,1,0.4,1.7,1.1,2.2s1.8,0.7,3.2,0.7s3-0.2,4.9-0.7v2c-1.8,0.4-3.6,0.6-5.2,0.6C132.4,26.6,130.2,25.1,130.2,22.2z M140,17.9
			v-2.3c0-0.9-0.3-1.5-0.8-1.8s-1.4-0.5-2.7-0.5c-1.2,0-2.1,0.2-2.7,0.5s-0.8,0.9-0.8,1.8v2.3H140z"/>
		<path class="st0" d="M146.8,11.8h2.7v1.8c0.3-1.4,1.9-2.1,4.8-2.1c1.9,0,3.2,0.3,3.9,1c0.8,0.7,1.1,1.7,1.1,3.2v10.7h-2.7V15.8
			c0-0.4,0-0.7-0.1-0.9s-0.2-0.5-0.4-0.7c-0.4-0.5-1.3-0.8-2.7-0.8c-1.1,0-1.9,0.1-2.4,0.2c-0.6,0.2-1,0.4-1.2,0.7s-0.3,0.8-0.3,1.4
			v10.5h-2.7L146.8,11.8L146.8,11.8z"/>
		<path class="st0" d="M164,6.5h2.7v2.8H164V6.5z M164,11.8h2.7v14.5H164V11.8z"/>
		<path class="st0" d="M170.8,22.2v-5.7c0-1.8,0.5-3,1.5-3.8s2.6-1.2,4.9-1.2c2.1,0,3.7,0.4,4.6,1.1s1.4,2,1.4,3.8v3.2h-9.8v2.2
			c0,1,0.4,1.7,1.1,2.2s1.8,0.7,3.2,0.7s3-0.2,4.9-0.7v2c-1.8,0.4-3.6,0.6-5.2,0.6C173,26.6,170.8,25.1,170.8,22.2z M180.6,17.9
			v-2.3c0-0.9-0.3-1.5-0.8-1.8s-1.4-0.5-2.7-0.5c-1.2,0-2.1,0.2-2.7,0.5s-0.8,0.9-0.8,1.8v2.3H180.6z"/>
	</g>
</g>
</svg>
