<svg xmlns="http://www.w3.org/2000/svg" xmlns:xlink="http://www.w3.org/1999/xlink" viewBox="0 0 864.67 644.32" xmlns:v="https://vecta.io/nano"><style><![CDATA[.F{isolation:isolate}.L{fill:#008181}.M{fill:#3f3d56}.N{fill:#2f2e41}.O{fill:#ffb6b6}.P{fill:#0067b1}.Q{fill:#e6e6e6}]]></style><g class="M"><path d="M687.92 527c.1-.11-.64-.2-2-.28V481h-66v3.68h-29.71c-7.252.011-13.129 5.888-13.14 13.14v18.91c.011 7.252 5.888 13.129 13.14 13.14h30.45 13.37.97 13.38 37.37 3.22c.42-.4-1.5-2.34-1.05-2.87z"/><path d="M688.63 527.85c-2.18 3.18-4 3.06-5.5 1a16.66 16.66 0 0 1-2-3.83c-4.7-12.06-7.78-39.73-16.65-30l-5.31 5.68c-3.32 3.49-6.79 7.28-10.22 10.62 0 0 .08-.36.07-.35-1.7 1.66-.42-12.67-1.09-16.71-.14-.87-.38-1.26-.75-.91v-1.18q0-.93.09-1.86a21.2 21.2 0 0 1 .25-1.73l29-155.06a19.44 19.44 0 0 1 16.79-15.7 20 20 0 0 1 5.83.2l5.28 1a19.15 19.15 0 0 1 5.93 2.17h0a19.43 19.43 0 0 1 9.55 20.46z"/></g><path d="M441.01 616.18l-13.62-6.52 18.71-56.9 20.09 9.61-25.18 53.81zm91.27-9.18l-3 1.84-6 3.6-3 1.76h0-.08l-1.54.38-2.21-5.84-1-2.69-1.45-3.76-2.64-7-13.9-36.7 21.54-5.3.81 3.31h0l.4 1.64 7.55 30.62 1.54 6.26v.19l.93 3.74.8 3.24.89 3.62z" class="O"/><g class="P"><path d="M661.19 478.12l-4.18 6.56q-3.93 6.06-8.07 11.94h0a28.35 28.35 0 0 1-5.3 3.87c-.08.06-.17.1-.25.15a19.36 19.36 0 0 1-4.46 1.79l-1.69.42-6 1.25a108.92 108.92 0 0 1-10.52 1.36l-.84.07c-14.31 1.05-28.24-.64-42.78-3.41-7.18-1.36-14.51-3-22.1-4.68l-7.49-1.66-.59-.13-11-2.34c-4.72-1-9.59-1.91-14.65-2.8l.36 7.13a53.73 53.73 0 0 0 3.38 16c2.16 6.32 3.87 11.32.26 21.73l-1.74 5a17.22 17.22 0 0 1-1.77 15.23l-.35.53 14.51 36.71.94 2.38h-32.1l-22.35-44.84-1.07-2.14v-.11l2.31-86.17c0-.76.09-1.53.19-2.29a26.19 26.19 0 0 1 10-17.64A25.23 25.23 0 0 1 512.6 437l7.65 1 15.63 2 11 1.43h.22l32.47 4.2 2.33-9.5.43-.16L596 431l47.28-17.33h.12l3.11-1.14.37.6.32.54a92 92 0 0 1 7.48 17.33 271.63 271.63 0 0 1 7.85 30q.13.66.24 1.2v.11c0 .17.05.28.06.31 1.17 4.47.36 10.01-1.64 15.5z"/><path d="M663.19 446.36l-.54-1.92a138.38 138.38 0 0 0-5.54-14c-2.36-5.2-5.19-10.77-8.56-16.8q-2.44-4.38-5.26-9.11-1.41-2.37-2.93-4.83l-.13-.22-.29-.48-46.78 6.26-17.42 2.33-1 8.68-.25 2.15-.7 5.86h0l-.93 7.74h-.08l-25.85-3.35-26.64-3.45-14.31-1.85a25.23 25.23 0 0 0-18.79 5.14 26.2 26.2 0 0 0-10 17.64c-.09.7-.15 1.42-.18 2.13l-13.5 32a206.24 206.24 0 0 0-15.26 60L438.34 572l1.41.13 21 1.95 5.54.52 12.2-17.81c1.39-2 2.71-4.12 3.94-6.26a95.92 95.92 0 0 0 5.39-10.84l26.39-62.8 6.06 1q13.88 2.25 26.64 3.67c27.67 3.09 51.63 3.33 73 .71q9-1.1 17.37-2.88 3.07-.64 6.07-1.39l1.39-.34a25.51 25.51 0 0 0 17.85-16.68 26.09 26.09 0 0 0 .6-14.62z"/></g><path d="M445.36 606.88l-14.73-7.06-2.31-1.11-3.69 9.06-25.76 5.67a6.11 6.11 0 0 0-1 11.63L423 635.34l8-7.19-2 9.65 9.48 3.87 10.39-33.07z" fill="#014f7f"/><path d="M535.88 592.93l.94 2.38h-.94v-2.38z" class="N"/><g class="M"><path d="M359.88 419.86c0-5.36-1.8-9.71-4-9.72h-166.5c-2.22 0-4 4.36-4 9.72V640.5a2 2 0 0 1-1.81 2l-4.85.43h-.12l-2.64.21h0l-1.34-2.53a2 2 0 0 1-.23-.93V407.25a64.92 64.92 0 0 1 .16-4.44 55.3 55.3 0 0 1 .75-6c1.69-9.29 5.51-15.58 9.85-15.6h175a4.67 4.67 0 0 1 1.84.39 7.22 7.22 0 0 1 2.27 1.59 13.89 13.89 0 0 1 2.23 3.05c2.14 3.77 3.67 9.39 4.21 15.93v.18a53.52 53.52 0 0 1 .2 4.92l.14 21.43.09 12.78.27 40.1.1 14.24.44 146.2h0a2 2 0 0 1-2 2h-8a2 2 0 0 1-2-2zM241.2 321.74l-11.58 50.95-7.4 8.11h-5.34l22.01-92.65 1.08 15.74v.01l1.23 17.84z"/><path d="M296.94 373.81l-67.94-.43h-6-4.3-5 0a2.79 2.79 0 0 0-1.94.8l-8.46 8.46a2.32 2.32 0 0 0-.45.64.85.85 0 0 0-.13.22 2.81 2.81 0 0 0 1.47 3.71 2.64 2.64 0 0 0 1.07.23h88a2.8 2.8 0 0 0 2.52-1.6l.69-1.5 1.42-3.05 1.61-3.44a2.74 2.74 0 0 0 .26-1.17 2.79 2.79 0 0 0-2.82-2.87z"/></g><path class="F" d="M296.4 384.24l-.7 1.51a2.81 2.81 0 0 1-2.51 1.6h-88a2.82 2.82 0 0 1-2.77-2.87 2.64 2.64 0 0 1 .23-1.07.61.61 0 0 1 .13-.22zm-56.43-80.35v.01l-18.84 76.9h-4.25l22.01-92.65 1.08 15.74z" opacity=".17"/><path d="M263.1 318l-26.67-202.93a2.93 2.93 0 0 0-1.1-1.92L217 90.17l-1.65-1.27a3 3 0 0 0-2.14-.57l-2.76.37a2.89 2.89 0 0 0-2.5 3.24h0l27.64 210.24h0l1.69 12.86 2 15.27h0l3.12 23.76a2.78 2.78 0 0 0 1.25 2 2.84 2.84 0 0 0 2.33.42l1.75-.44a2.89 2.89 0 0 0 1.66-1.14l.78-1.11.36-.52L262.59 320a2.91 2.91 0 0 0 .51-2z" class="M"/><path class="F" d="M217 90.17l33.55 263.17-.36.51-.78 1.11a2.94 2.94 0 0 1-1.66 1.14l-1.75.44a2.9 2.9 0 0 1-3.52-2.12 1.65 1.65 0 0 1-.06-.32L207.92 92a2.9 2.9 0 0 1 2.49-3.25l2.77-.36a2.81 2.81 0 0 1 2.13.57z" opacity=".17"/><path d="M217.95 97.7l17.8 25.41 21.16 161-11.47 22.76L217.95 97.7z" class="P"/><path d="M600.56 642.33l-12.21.22 33.93-117.88 12.21 3.78-33.93 113.88zm80.07.22l-12.2-.23L635 529.93l-.46-1.48 7.83-2.42 4.82.07 1.19 3.85z" class="M"/><path d="M530.75 595.82l-15.43 5.35-2.43.83 3.76 9-14.32 22.15a6.11 6.11 0 0 0 7.47 9l25.12-10.41.61-10.73 5.4 8.23 9.46-3.92-15.88-30.81z" fill="#014f7f"/><path d="M437.07 265c2.782 5.367 9.373 7.484 14.76 4.74a10.74 10.74 0 0 0 1.64-1l32.45 21.55L486 270l-30.83-17.35a11 11 0 0 0-18.1 12.35z" class="O"/><g class="L"><path d="M461.32 274.3l15.14-17.22 61.66 36.6 81.73-7.49c15.183-1.366 28.605 9.82 30 25a26.73 26.73 0 0 1 0 5.06h0c-1.41 15.202-14.866 26.389-30.07 25l-92.05-8.52z"/><path d="M651 274.57l-.15-.18-38.63-3.81-26.1 46C563.71 344 580 362.9 581 365.71l-7.79 35.91 1.75 12 .87 3.57 88.89 46.45-18.27-60.87 17.84-55.51A78.17 78.17 0 0 0 651 274.57z"/></g><path d="M693.34 234.11v1.46a33.58 33.58 0 0 1-44 31.86l-6.17-2-.16-.05-10.17-3.32a7 7 0 0 1 0-1.29c-15.17-6.48 5.8-27.77 11-43.76.81-2.49-27-.63-25.72-2.76l-.85-.45c9.655-15.239 28.099-22.428 45.52-17.74l.67.18c19.76.49 30.14 14.26 30.14 32.14a47.92 47.92 0 0 1-.26 5.73z" class="N"/><path d="M676.22 241.15c-5.523 16.906-23.7 26.14-40.61 20.63q-1.38-.45-2.7-1c-15.997-6.863-23.643-25.197-17.263-41.393s24.476-24.389 40.856-18.499 25.113 23.732 19.718 40.282z" class="O"/><path d="M643.22 265.42l-.16-.05-10.17-3.32a7 7 0 0 1 0-1.29c.3-3.35 2.65-6.86 5.81-10.64a19.48 19.48 0 0 0-8.57-31l-.26-.09a91.62 91.62 0 0 1-11.69-4.84l-.85-.45c-2.54-1.4-4.38-2.8-5.19-4.14a29.74 29.74 0 0 1 37.5-19.06h0l5.9 1.92a29.62 29.62 0 0 1 17.2 14.64c4.16 3 7.44 7.36 10 12.53 12.96 25.99-11.98 54.63-39.52 45.79z" class="N"/><path d="M662.69 422.3a8.7 8.7 0 0 1-5.58 8.12 8.47 8.47 0 0 1-2.43.54h-.67-16.79v81.46l-.77 1-4.38 5.49-1 1.18-1.45 1.76-.49.59-2.48 2.94h0 0l-.42.48-2 2.38a8.44 8.44 0 0 1-2.44-2 8.07 8.07 0 0 1-1.06-1.64v-.07a8.53 8.53 0 0 1-.84-3.75V431h-37.68a8.39 8.39 0 0 1-3.24-.63 8.65 8.65 0 0 1-5.22-6.08h0a8.56 8.56 0 0 1 .7-5.86 8.07 8.07 0 0 1 1.53-2.13h0 0a8.73 8.73 0 0 1 6.22-2.62H654a8.68 8.68 0 0 1 8.69 8.62zm47.81-168.13c-14.773-2.757-28.985 6.979-31.75 21.75h0c-2.395 12.8 4.614 25.502 16.72 30.3L687.28 350l17.08 3.2 18.09-96.76z" class="M"/><g class="N"><circle cx="685.92" cy="208" r="14"/><path d="M849.12 248.2c-6.07 2-12.57 2.37-19 2.48-18.63.32-37.73-1.31-54.69-9s-31.52-22.44-35.29-40.68c-1.62-7.86-1.43-16.62-6.39-22.94-5.88-7.5-17.7-8.52-25.94-3.72s-13 14.14-14.44 23.57l-3.31 5.39c.07 3.47 3.83 5.78 7.29 6.1s6.93-.62 10.39-.37c7.59.57 13.78 7.06 16 14.34s1.15 15.16-.74 22.53-4.6 14.56-5.68 22.1-.35 15.71 4.08 21.89c3.33 4.64 8.4 7.72 13.55 10.19a91.44 91.44 0 0 0 128.85-63.52c-2.92 5.7-8.6 9.61-14.68 11.64z"/></g><path d="M580.33 544.24h-28.51a6.52 6.52 0 0 1-6.45-5.6 145.06 145.06 0 0 1 0-39.05 6.51 6.51 0 0 1 6.34-5.59c9-4 18.63-4 28.72 0a6.43 6.43 0 0 1 4.9 2.36 6.56 6.56 0 0 1 1.36 5.49 87.69 87.69 0 0 0 0 34.54 6.56 6.56 0 0 1-1.36 5.49 6.4 6.4 0 0 1-5 2.36z" class="L"/><path d="M577.35 508.88h-24a1.5 1.5 0 1 1 0-3h24a1.5 1.5 0 1 1 0 3zm0 12h-24a1.5 1.5 0 1 1 0-3h24a1.5 1.5 0 1 1 0 3zm0 12h-24a1.5 1.5 0 1 1 0-3h24a1.5 1.5 0 1 1 0 3z" fill="#fff"/><path d="M239.6 226.4h0a.93.93 0 0 1 1-.82l154.3.42a.94.94 0 0 1 1 .82h0a.94.94 0 0 1-1 .82l-154.28-.41a.94.94 0 0 1-1.02-.83z" class="M"/><path d="M280.4 321.42l-6.56 7.21a2.07 2.07 0 0 1-2.22.28 6.53 6.53 0 0 1-2.8-1.92 96.32 96.32 0 0 0-15.67-14.25 6.59 6.59 0 0 1-2.18-2.61 2.1 2.1 0 0 1 .05-2.2c.06-3.95 2.28-6.39 6.6-7.26.76-.79 2.47-.49 4 .7a159 159 0 0 1 17.71 16.11c1.35 1.43 1.81 3.12 1.07 3.94z" class="L"/><path d="M263.56 305.91L258 312c-.19.21-.64.11-1-.23s-.53-.79-.34-1l5.52-6.07c.19-.21.65-.1 1 .24s.57.76.38.97zm5.44 4.95l-5.51 6.07c-.19.2-.65.1-1-.24s-.52-.79-.33-1l5.51-6.07c.19-.21.65-.1 1 .24s.52.79.33 1zm5.45 4.95l-5.52 6.07c-.19.21-.64.1-1-.24s-.53-.79-.34-1l5.52-6.07c.19-.21.65-.1 1 .24s.53.79.34 1z" fill="#fff"/><path d="M864.67 643.13a1.2 1.2 0 0 1-1.18 1.19H1.19a1.19 1.19 0 0 1-1.031-1.785 1.19 1.19 0 0 1 1.031-.595h862.29a1.17 1.17 0 0 1 1.19 1.18z" class="P"/><path d="M588.69 507.79c5.185-3.093 6.908-9.788 3.86-15a10.24 10.24 0 0 0-1.13-1.57L611 457.53l-20.21 1.14-15.5 31.8a11 11 0 0 0 13.39 17.32z" class="O"/><path d="M596.59 483l-18.1-14.09 32.89-63.72-12.33-81.14a27.6 27.6 0 0 1 28.24-31.77h0A27.65 27.65 0 0 1 654 320.84l-3 92.39z" class="L"/><path d="M439.67 282.26h-61.1a6.19 6.19 0 0 1-6.18-6.18v-80.9a6.18 6.18 0 0 1 6.18-6.18h61.1a6.18 6.18 0 0 1 6.17 6.18v80.9a6.18 6.18 0 0 1-6.17 6.18z" class="Q"/><path d="M435.37 277.11h-52.51a5.48 5.48 0 0 1-5.48-5.48v-72a5.48 5.48 0 0 1 5.48-5.48h52.51a5.49 5.49 0 0 1 5.49 5.48v72a5.5 5.5 0 0 1-5.49 5.48z" fill="#fff"/><g class="L"><use xlink:href="#B"/><use xlink:href="#C"/><use xlink:href="#D"/></g><g fill="#7fbfbf"><use xlink:href="#B" y="22.17"/><use xlink:href="#C" y="22.18"/><use xlink:href="#D" y="22.18"/><path d="M430.13 252.19h-42a1.38 1.38 0 0 1-1.38-1.37 1.37 1.37 0 0 1 1.37-1.37h42a1.37 1.37 0 1 1 0 2.74z"/><use xlink:href="#B" y="49.77"/><use xlink:href="#D" y="44.34"/></g><path d="M231.75 174.46l163.91-140.2h.26v2.05h.5L233.09 176.02l-1.34-1.56z" class="N"/><path d="M344.92 335.47h-75.37a4.44 4.44 0 0 0-4.44 4.44v46.93a4.45 4.45 0 0 0 4.44 4.44h75.37a4.45 4.45 0 0 0 4.44-4.44v-46.93a4.44 4.44 0 0 0-4.44-4.44z" fill="#fff"/><g fill="#cacaca"><path d="M344.92 335.47h-75.37a4.44 4.44 0 0 0-4.44 4.44v46.93a4.45 4.45 0 0 0 4.44 4.44h75.37a4.45 4.45 0 0 0 4.44-4.44v-46.93a4.44 4.44 0 0 0-4.44-4.44zm1.45 33.71c-.031 9.938-8.013 18.022-17.95 18.18-7.64.1 4.23.14-5 .14-21.09 0-43.08-.2-51.29-.33a4.15 4.15 0 0 1-4.05-4.12v-43.13a1.47 1.47 0 0 1 1.46-1.47h75.36a1.47 1.47 0 0 1 1.46 1.46z"/><path d="M335 365.42h-57.45a2.47 2.47 0 0 1-2.32-1.64l-8.87-24.88a2.46 2.46 0 0 1 1.5-3.14 2.29 2.29 0 0 1 .82-.15l77-.13h0a2.46 2.46 0 0 1 2.46 2.46 2.51 2.51 0 0 1-.2 1l-.13-.06.13.06-10.72 25a2.47 2.47 0 0 1-2.22 1.48z"/></g><circle cx="307.19" cy="365.42" r="6.14" class="P"/><g class="L"><path d="M142.13 612.41c-1.2 8.84-7.21 16.82-14.94 22a39.78 39.78 0 0 1-5.81 3.25 50.4 50.4 0 0 1-6.87 2.52c-10.3 3-21.43 3.14-32.26 3.2l-32.84.21c-8.63 0-17.54 0-25.51-3.26a2.63 2.63 0 0 1-.35-.15c-7.83-3.38-14.5-10.81-14.31-19.31a17.54 17.54 0 0 1 2.46-8.49 24.82 24.82 0 0 1 3.64-4.76c4.34-4.5 10.36-8 16-10.87 9.3-4.67 19.81-10.73 22.53-20.33a17 17 0 0 0 .58-3.09c.64-6.6-2.57-12.67-6.66-18.1a58.76 58.76 0 0 0-1.25-1.62c-.92-1.15-1.87-2.28-2.81-3.36l-1.21-1.4c-3.78-4.38-7.59-9.06-9.58-14.29a20.68 20.68 0 0 1-1.41-6.86c-.22-8.49 9.27-17 16.45-13l10.56-1.05 12.93-1.3h0c1-.08 1.92-.18 2.87-.28l26.89-2.69c4-.39 8.66-.54 11.25 2.52 2.82 3.34 1.36 8.62-1.43 12s-6.66 5.74-9.28 9.22c-3.39 4.5-4.18 10.19-3.21 15.77a28.06 28.06 0 0 0 1.26 4.76 32 32 0 0 0 4 7.77c5.88 8.24 14.59 13.92 22.32 20.45s15 14.84 16 24.9c0 .29.06.59.07.89a23 23 0 0 1-.08 4.75z"/><path d="M79.24 520.84a113.5 113.5 0 0 1-19.73-26.11A116.09 116.09 0 0 1 48 464.25a111.66 111.66 0 0 1-2.39-33 115.52 115.52 0 0 1 23.92-61.82l2.59-3.2s2.67.52 1.69 1.68c-37.409 44.56-34.288 110.389 7.17 151.21 1.09 1.08-.59 2.76-1.69 1.68z"/></g><path d="M68.52 371.5a29.58 29.58 0 0 0 2.83-1.24l.14.22z" class="Q"/><path d="M86.91 350.48a22.87 22.87 0 0 1-2.09 6.28 30.11 30.11 0 0 1-12.55 13l-.92.48-1.11-1.74a40.41 40.41 0 0 1-5.58-12.44c-1.16-5.21-.53-11.06 2.81-15.23s9.69-6 14.3-3.34a10.06 10.06 0 0 1 3.3 3.19l-1.38 1.7-.13.15-1.21 1.47-5 6.15a31.67 31.67 0 0 0 7.14.49h.58c.61-.03 1.23-.08 1.84-.16zm-33.73 41.01l-.64 8.34-.17 2.26-.55-.27a47.79 47.79 0 0 1-26.72-38.28l9.73-1.54a31.94 31.94 0 0 0-9.66-8.37 48.31 48.31 0 0 1 8.75-23.15c.84 14 15.48 22.87 20.84 35.8a29.08 29.08 0 0 1-1.58 25.21zm-2.78 73.25l-2.33.05a48.88 48.88 0 0 1-35.44-15.55 47.67 47.67 0 0 1-8.73-13.67h.2l9.73-1.57A31.81 31.81 0 0 0 .58 423.93a47.66 47.66 0 0 1-.16-13.65c7.32 11.93 24.43 12.89 35.24 21.77a29.13 29.13 0 0 1 10 16.83 27.32 27.32 0 0 1 .51 4.94V455l.24.54zm32.16 13.81l-6.21 7.64a31.73 31.73 0 0 0 7.72.46 48.84 48.84 0 0 1-12.77 21.67 38.58 38.58 0 0 1-1.76 1.63l-.37.33-.54-1.53h0l-3.06-8.47a28.94 28.94 0 0 1-7.75-14.21h0a27.93 27.93 0 0 1-.49-9.6c1.71-13.89 13.45-26.38 10.53-40.07A48.36 48.36 0 0 1 82.35 456l-5 6.15a31.67 31.67 0 0 0 7.14.49A46.25 46.25 0 0 1 85.85 473v1.49l-3.16 3.89z" class="L"/><path d="M448.67 68.26h-61.1a6.19 6.19 0 0 1-6.18-6.18V6.18A6.18 6.18 0 0 1 387.57 0h61.1a6.18 6.18 0 0 1 6.17 6.18v55.9a6.18 6.18 0 0 1-6.17 6.18z" class="Q"/><path d="M444.37 63.11h-52.51a5.48 5.48 0 0 1-5.48-5.48v-47a5.48 5.48 0 0 1 5.48-5.48h52.51a5.49 5.49 0 0 1 5.49 5.48v47a5.5 5.5 0 0 1-5.49 5.48z" fill="#fff"/><g class="L"><use xlink:href="#B" x="9" y="-189"/><use xlink:href="#C" x="9" y="-189"/><path d="M415.32 29.66H397.1a1.37 1.37 0 0 1 0-2.74h18.22a1.37 1.37 0 1 1 0 2.74z"/></g><g fill="#7fbfbf"><use xlink:href="#B" x="9" y="-166.83"/><path d="M439.13 46.43h-42a1.38 1.38 0 1 1 0-2.75h42a1.38 1.38 0 0 1 0 2.75zm-23.81 5.41H397.1a1.37 1.37 0 1 1 0-2.74h18.22a1.37 1.37 0 1 1 0 2.74z"/></g><defs ><path id="B" d="M430.13 207.83h-42a1.37 1.37 0 1 1 0-2.74h42a1.37 1.37 0 1 1 0 2.74z"/><path id="C" d="M430.13 213.25h-42a1.38 1.38 0 0 1 0-2.75h42a1.38 1.38 0 0 1 0 2.75z"/><path id="D" d="M406.32 218.66H388.1a1.37 1.37 0 1 1 0-2.74h18.22a1.37 1.37 0 1 1 0 2.74z"/></defs></svg>