<svg xmlns="http://www.w3.org/2000/svg" viewBox="0 0 738.5 551.74" xmlns:v="https://vecta.io/nano"><style><![CDATA[.L,.P{isolation:isolate}.S{fill:#0067b1}.T{fill:#e6e6e6}.U{fill:#7fbfbf}.V{fill:#ffb6b6}.W{fill:#cacaca}]]></style><path d="M708.67 487.5H491.32c-16.466-.017-29.809-13.364-29.82-29.83V114.83c.006-16.468 13.352-29.819 29.82-29.83h217.35c16.466.011 29.813 13.354 29.83 29.82v342.85c-.017 16.468-13.362 29.813-29.83 29.83z" class="T"/><path d="M712.27 102.8H490.91a9.35 9.35 0 0 0-9.33 9.34v347.31a9.34 9.34 0 0 0 9.33 9.34h221.36a9.34 9.34 0 0 0 9.34-9.34V112.14a9.35 9.35 0 0 0-9.34-9.34z" fill="#fff"/><path d="M496.67 85a2.31 2.31 0 0 1 2.29-2.29h15.51a2.29 2.29 0 1 1 0 4.57h-15.55a2.29 2.29 0 0 1-2.25-2.28zm25.52 0a2.29 2.29 0 0 1 2.28-2.29h15.52a2.29 2.29 0 0 1 0 4.57h-15.52a2.28 2.28 0 0 1-2.28-2.28zm153.33 0a2.29 2.29 0 0 1 2.28-2.29h15.52a2.29 2.29 0 0 1 0 4.57H677.8a2.28 2.28 0 0 1-2.28-2.28z" class="T"/><path d="M632.27 461.63l-.16 7.16h-141.2a9.34 9.34 0 0 1-9.33-9.34V284.64c86.854 14.03 150.692 89.011 150.69 176.99z" fill="#b9dbda"/><rect x="570.48" y="192.06" width="61.34" height="14.09" rx="4.34" class="S"/><g class="U"><rect x="537.01" y="220.24" width="128.28" height="14.09" rx="4.34"/><rect x="537.01" y="248.43" width="128.28" height="14.09" rx="4.34"/></g><path d="M640.46 445.05a3.35 3.35 0 0 1-2.42-5.8l.23-.91-.09-.22a9 9 0 0 0-16.59.06c-2.71 6.53-6.16 13.08-7 20a26.51 26.51 0 0 0 .46 9.14 106.6 106.6 0 0 1-9.7-44.29 102.45 102.45 0 0 1 .64-11.48 104.76 104.76 0 0 1 1.47-9.31 107.85 107.85 0 0 1 21.39-45.72 28.71 28.71 0 0 0 11.94-12.38 21.87 21.87 0 0 0 2-6 25.89 25.89 0 0 1-1.75.17h-.56-.06a3.32 3.32 0 0 1-2.73-5.41l.76-.92 1.15-1.42.12-.15 1.32-1.62a9.64 9.64 0 0 0-3.15-3c-4.39-2.57-10.45-.79-13.62 3.19s-3.79 9.55-2.68 14.51a38.35 38.35 0 0 0 5.32 11.85c-.24.31-.49.6-.73.91a108.75 108.75 0 0 0-11.33 17.95 45.22 45.22 0 0 0-2.69-21c-2.58-6.22-7.42-11.46-11.67-16.84-5.12-6.46-15.6-3.64-16.5 4.55v.23q.94.54 1.86 1.14a4.54 4.54 0 0 1-1.83 8.26h-.1a45.44 45.44 0 0 0 1.2 6.75 46.52 46.52 0 0 0 23.16 29.16l1.1.56a111 111 0 0 0-6 28.07 104.51 104.51 0 0 0 .08 17v-.2a27.78 27.78 0 0 0-9.48-16c-7.3-6-17.61-8.2-25.48-13a5.21 5.21 0 0 0-8 5.07v.21a30.74 30.74 0 0 1 3.42 1.65c.63.36 1.25.73 1.86 1.14a4.54 4.54 0 0 1-1.83 8.26h-.1-.19a45.28 45.28 0 0 0 8.32 13 46.59 46.59 0 0 0 33.77 14.81h0a111.06 111.06 0 0 0 7.44 21.73h26.59l.26-.9a30.16 30.16 0 0 1-7.35-.43l5.92-7.28.12-.15 3-3.7h0a44.21 44.21 0 0 0-1.3-11.28zm-30.44-59.88h0zm-5.89 53.08l-.23-.51v-1.13-.31l.26 2z" fill="#adadad"/><path d="M701.21 133.47H501.98a1.65 1.65 0 1 1 0-3.3h199.23a1.65 1.65 0 1 1 0 3.3z" class="W"/><g fill="#3f3d56"><ellipse cx="512.61" cy="120.45" rx="4.85" ry="4.95"/><ellipse cx="529.35" cy="120.45" rx="4.85" ry="4.95"/><ellipse cx="546.09" cy="120.45" rx="4.85" ry="4.95"/><path d="M693.42 117.41h-10.84a.82.82 0 0 0-.81.83.83.83 0 0 0 .81.81h10.84a.82.82 0 1 0 0-1.64zm0 3.08h-10.84a.82.82 0 1 0 0 1.64h10.84a.82.82 0 0 0 0-1.64zm0 3.08h-10.84a.82.82 0 0 0-.81.83.83.83 0 0 0 .81.81h10.84a.82.82 0 1 0 0-1.64z"/></g><path d="M370.17 284.77h-115.5a6.16 6.16 0 0 0-6.16 6.17v182.47h127.83V290.94a6.17 6.17 0 0 0-6.17-6.17zM312.8 388.45c-7.515-.044-13.596-6.125-13.64-13.64v-21.05c0-7.533 6.107-13.64 13.64-13.64s13.64 6.107 13.64 13.64v21.05c-.038 7.517-6.123 13.602-13.64 13.64z" class="T"/><path d="M248.11 467.57v17.61a3.44 3.44 0 0 0 3.44 3.44h121.74a3.46 3.46 0 0 0 3.44-3.44v-17.61z" fill="#ccc"/><path d="M561.44 0H67.67c-8.837 0-16 7.163-16 16v333.19c0 8.837 7.163 16 16 16h493.77c8.837 0 16-7.163 16-16V16c0-8.837-7.163-16-16-16z" class="T"/><path d="M557.32 11.56H71.81a8.58 8.58 0 0 0-8.56 8.57v324.94a8.58 8.58 0 0 0 8.56 8.56h485.51a8.58 8.58 0 0 0 8.56-8.56V20.13a8.58 8.58 0 0 0-8.56-8.57z" fill="#fff"/><path d="M565.88 20.13v324.94a8.58 8.58 0 0 1-8.56 8.56h-171.2A210.22 210.22 0 0 1 340.28 292l-2.13-4.54a208.18 208.18 0 0 1-18.48-71.27l-.3-4.55q-.35-5.88-.34-11.87a209.4 209.4 0 0 1 14.75-77.42l1.85-4.55A210.64 210.64 0 0 1 435.87 11.56h121.45a8.58 8.58 0 0 1 8.56 8.57z" class="U"/><path d="M532.92 56.33H78.67a1.81 1.81 0 0 1 0-3.62h454.3a1.81 1.81 0 0 1 0 3.62z" class="W"/><ellipse cx="109.55" cy="32.67" rx="10.59" ry="10.82" fill="#f8fc51"/><ellipse cx="146.13" cy="32.67" rx="10.59" ry="10.82" class="S"/><ellipse cx="182.7" cy="32.67" rx="10.59" ry="10.82" class="U"/><path d="M510.89 24.53h-26a2 2 0 0 0 0 3.93h26a2 2 0 0 0 0-3.93zm0 7.38h-26a2 2 0 0 0 0 3.93h26a2 2 0 0 0 0-3.93zm0 7.37h-26a2 2 0 0 0 0 3.94h26a2 2 0 0 0 0-3.94z" fill="#3f3d56"/><rect x="149.86" y="161.87" width="72.21" height="15.44" rx="4.34" class="S"/><g class="U"><rect x="113.19" y="192.75" width="145.55" height="15.44" rx="4.34"/><rect x="113.19" y="223.63" width="145.55" height="15.44" rx="4.34"/></g><path d="M125.06 335a53.13 53.13 0 0 1-3.34 18.63H71.81a8.58 8.58 0 0 1-8.56-8.56v-62.78A53.38 53.38 0 0 1 125.06 335z" fill="#6c63ff"/><path class="L" d="M566.32 122.35v-4.55h-76.34V65h-4.54v52.8h-87.51V65h-4.53v52.8h-57.8l-1.85 4.55h59.65v89.29h-74.06l.3 4.55h73.76v71.23h-55.25l2.13 4.54h53.12v59.87h4.53V292h87.51v59.87h4.54V292h76.34v-4.54h-76.34a71.22 71.22 0 0 1 71.22-71.23h5.12v-4.55h-76.34v-89.33zm-80.88 165.07h-87.51v-71.23h87.51zm0-75.78h-87.51v-1.78c0-48.33 39.18-87.51 87.51-87.51h0z" opacity=".2"/><path d="M504.85 319.92a4.76 4.76 0 0 1-3.44-8.25l.32-1.29c0-.1-.08-.21-.13-.31a12.76 12.76 0 0 0-23.55.09c-3.85 9.27-8.76 18.57-10 28.38a37.84 37.84 0 0 0 .67 13 151.43 151.43 0 0 1-13.78-62.9 145.76 145.76 0 0 1 .91-16.31q.75-6.66 2.08-13.22a153.23 153.23 0 0 1 30.38-64.93 40.74 40.74 0 0 0 17-17.59 31.15 31.15 0 0 0 2.83-8.5c-.83.11-1.67.18-2.49.23h-.79-.09a4.71 4.71 0 0 1-3.87-7.67l1.07-1.32 1.63-2a1.62 1.62 0 0 0 .18-.2l1.87-2.31a13.64 13.64 0 0 0-4.47-4.31c-6.24-3.66-14.84-1.13-19.35 4.52s-5.37 13.56-3.8 20.61c1.34 6 4.26 11.57 7.55 16.83-.34.44-.69.86-1 1.29a154.57 154.57 0 0 0-16.09 25.49 64.14 64.14 0 0 0-3.82-29.75c-3.66-8.83-10.53-16.28-16.57-23.91-7.27-9.18-22.16-5.18-23.44 6.46v.33a47.61 47.61 0 0 1 2.63 1.62 6.44 6.44 0 0 1-2.6 11.73h-.13a65 65 0 0 0 1.69 9.6 66.11 66.11 0 0 0 32.9 41.41c.53.27 1 .54 1.57.8a157.1 157.1 0 0 0-8.47 39.86 149.29 149.29 0 0 0 .11 24.11v-.29a39.41 39.41 0 0 0-13.47-22.77c-10.36-8.52-25-11.65-36.18-18.49-5.38-3.3-12.27 1-11.34 7.2 0 .1 0 .2.05.3a43.42 43.42 0 0 1 4.86 2.34c.9.51 1.78 1 2.64 1.61a6.45 6.45 0 0 1-2.6 11.74h-.14-.27a64.26 64.26 0 0 0 11.82 18.5 66.13 66.13 0 0 0 48 21h0a157.29 157.29 0 0 0 10.57 30.86h37.76c.13-.42.25-.86.37-1.28a43 43 0 0 1-10.44-.62l8.4-10.34.18-.2 4.27-5.26h0a62.5 62.5 0 0 0-1.84-16zm-43.18-85.06h0 0zm-8.37 75.39l-.32-.73q0-.78 0-1.59v-.45l.37 2.8z" class="S"/><path d="M168.67 231.61h0v-50.74a29.37 29.37 0 0 0-29.37-29.37H31.77A29.37 29.37 0 0 0 2.4 180.87h0v278.38a29.37 29.37 0 0 0 29.37 29.37h107.51a29.37 29.37 0 0 0 29.39-29.37V267.73h0a1.85 1.85 0 0 0 1.85-1.85v-32.42a1.85 1.85 0 0 0-1.85-1.85z" class="T"/><path d="M162.4 181.07v278c.006 12.036-9.694 21.826-21.73 21.93H32.44a21.93 21.93 0 0 1-21.93-21.93v-278a21.93 21.93 0 0 1 21.93-21.93h13.11a10.42 10.42 0 0 0 9.65 14.36h61.59a10.45 10.45 0 0 0 9.64-14.36h14a21.93 21.93 0 0 1 21.97 21.93z" fill="#fff"/><path d="M140.98 472.4q0 4.32-.27 8.57H32.44a21.93 21.93 0 0 1-21.93-21.93V335.17c73.099 3.692 130.473 64.038 130.47 137.23z" fill="#caeae9"/><path d="M3 260a2.5 2.5 0 0 1-2.5-2.5v-17a2.5 2.5 0 1 1 5 0v17A2.51 2.51 0 0 1 3 260z" class="T"/><rect x="68.85" y="246.43" width="35.21" height="15.44" rx="4.34" class="S"/><g class="U"><rect x="32.18" y="277.31" width="108.55" height="15.44" rx="4.34"/><rect x="32.18" y="308.19" width="108.55" height="15.44" rx="4.34"/></g><path d="M112.36 465.16a2.24 2.24 0 0 1-1.62-3.87l.15-.6-.06-.15a6 6 0 0 0-11 0c-1.81 4.35-4.11 8.72-4.68 13.32a17.88 17.88 0 0 0 .31 6.1A71.13 71.13 0 0 1 89 450.44a69.76 69.76 0 0 1 .42-7.65c.24-2.09.57-4.15 1-6.21a71.92 71.92 0 0 1 14.26-30.47 19.15 19.15 0 0 0 8-8.25 14.4 14.4 0 0 0 1.32-4c-.38 0-.78.08-1.16.11h-.37-.05a2.22 2.22 0 0 1-2.31-2.11 2.19 2.19 0 0 1 .5-1.49c.16-.21.33-.41.5-.62l.77-.95.08-.09.88-1.08a6.57 6.57 0 0 0-2.1-2c-2.93-1.71-7-.52-9.08 2.12s-2.52 6.37-1.79 9.68a25.92 25.92 0 0 0 3.55 7.9c-.16.2-.33.4-.48.6a72 72 0 0 0-7.56 12 30.1 30.1 0 0 0-1.79-14c-1.72-4.14-4.94-7.64-7.78-11.22a6.17 6.17 0 0 0-11 3v.16c.42.24.83.49 1.23.76a3 3 0 0 1-1.22 5.5h-.15a30 30 0 0 0 .8 4.51 31 31 0 0 0 15.43 19.43l.74.37a74 74 0 0 0-4 18.71 70 70 0 0 0 .06 11.31v-.13a18.56 18.56 0 0 0-6.32-10.69c-4.86-4-11.73-5.47-17-8.68a3.47 3.47 0 0 0-5.32 3.38v.14a21.72 21.72 0 0 1 2.28 1.1c.42.24.83.49 1.24.76a3 3 0 0 1-1.22 5.51h-.06-.13a30.34 30.34 0 0 0 5.54 8.68 31.07 31.07 0 0 0 22.51 9.87h0a73.23 73.23 0 0 0 5 14.48h17.72c.07-.2.12-.4.18-.6a19.62 19.62 0 0 1-4.9-.29l3.94-4.85a.39.39 0 0 0 .08-.1l2-2.47h0a29.26 29.26 0 0 0-.86-7.51zm-20.29-39.91h0 0zm-3.93 35.38l-.15-.35q0-.36 0-.75v-.2l.17 1.31z" fill="#adadad"/><path d="M2.5 227a2.5 2.5 0 0 1-2.5-2.5v-17a2.5 2.5 0 1 1 5 0v17a2.51 2.51 0 0 1-2.5 2.5z" class="T"/><path d="M69 162a2.5 2.5 0 0 1 2.5-2.5h17a2.5 2.5 0 1 1 0 5h-17A2.5 2.5 0 0 1 69 162z" fill="#fff"/><path d="M3 289a2.5 2.5 0 0 1-2.5-2.5v-17a2.5 2.5 0 1 1 5 0v17A2.51 2.51 0 0 1 3 289z" class="T"/><circle cx="98" cy="162" r="2.5" fill="#fff"/><path d="M271.44 226.11l-4.51 1a25.86 25.86 0 0 0-.7-5.6 16.81 16.81 0 0 1-2.54 6.3l-25.88 5.52-24.84-26.26c0-13.11 7.24-23.07 20.29-23.07.79 0 1.61 0 2.43.12 14.656-2.46 28.627 7.13 31.6 21.69 9.25 9.11 5.9 14.47 4.15 20.3z" fill="#3f3f3f"/><path d="M284.17 532.71h9.39l4.46-36.2h-13.85v36.2z" class="V"/><path d="M281.84 528.08l14.83-.88v6.35l14.11 9.74a4 4 0 0 1-2.25 7.24h-17.67l-3-6.28-1.19 6.28h-6.7z" class="S"/><path d="M174.21 522.49l8.16 4.64 21.75-29.29-12.05-6.84-17.86 31.49z" class="V"/><path d="M174.46 517.32l13.34 6.55-3.13 5.53 7.46 15.43a4 4 0 0 1-5.54 5.19l-15.36-8.72.45-7-4.13 4.88-5.8-3.29z" class="S"/><path d="M318.86 232.45a8.32 8.32 0 0 0-7 9.42 8.63 8.63 0 0 0 .34 1.42l-14.36 12.43 5.42 10.58 20-17.85a8.36 8.36 0 0 0-4.4-16z" class="V"/><path d="M304.4 275.2c-4.8 7.26-15.53 14.26-31.47 20.48a6.88 6.88 0 0 1-5.5-.18c-6-2.74-9.87-12.92-10.23-13.9l-11.65-15.71c-.2-.23-5.65-6.42-5-12.49a8.87 8.87 0 0 1 3.83-6.36c8.81-6.54 28.58 16.16 31.14 19.18l12.9-7.86 9.39-4.19 7.59-9.23 10.68 10.92-9.61 15.28a18.61 18.61 0 0 1-2.07 4.06zM270.9 303s27.6 44 22.6 49-12.78 6.31-12.78 6.31L263.5 336z" class="S"/><path class="P" d="M246.5 243l13 8.8c12.425 8.403 17.764 24.031 13.08 38.28l-3.67 11.13z" opacity=".2" fill="#606060"/><path d="M223.5 363l-1.74 6.06-5.93 73.04-29.65 55.25 14.15 10.1 40.43-52.55 15.99-52.18 25.11 115.52 18.86-1.35-13.1-160.17-24.86-45.08L223.5 363z" fill="#005d96"/><path d="M244.28 245.21L262.39 260a24.63 24.63 0 0 1 8.18 12.6h0a24.38 24.38 0 0 1 .87 6.9l-.54 32.13L287.5 356s-45 17-51 2 7.78-112.79 7.78-112.79z" class="U"/><path d="M249.67 365.79l-28.31.09-.36-.07v-13.52l5.5-24.29c-.64-7.54-2.14-17.49-2-26 .49-30.78-1-60.84-1-60.84l11.9-11 5.41 3.52 10 10c11.66 28.69 20.91 55.69 21 57.42l.74 29.86-3 12c-13.63 9.62-1.22 22.83-19.88 22.83z" class="S"/><path class="L" d="M228.52 267.97l-2.73 17.06 18.5 7.63-15.77-24.69z" opacity=".2"/><circle cx="247.16" cy="208.87" r="18.11" class="V"/><path class="L" d="M216.8 300.77h0c9.916 11.482 26.341 14.805 39.94 8.08l3.94-2z" opacity=".2"/><path d="M279.83 296.6a8.31 8.31 0 0 0-11.73-.68 8.52 8.52 0 0 0-1 1.07l-18.29-5.14-5.83 10.36 25.93 6.89a8.36 8.36 0 0 0 10.93-12.5z" class="V"/><path d="M236.19 308.09c-8.7 0-20.46-5.09-34.43-15a6.84 6.84 0 0 1-2.88-4.69c-1-6.52 5.34-15.35 6-16.19l6.7-18.38c.07-.3 2.23-8.25 7.64-11.08a8.91 8.91 0 0 1 7.42-.32c10.31 3.76 2.26 32.76 1.15 36.56l13.67 6.43 8.68 5.54 11.88 1.24-3.23 14.93-18 .41a18.61 18.61 0 0 1-4.6.55z" class="S"/><path d="M268.87 197c-1.45 1.89-6.44 3.55-12.37 4.9v-.37a25.79 25.79 0 0 0-.71-5.6 16.69 16.69 0 0 1-2.54 6.29c-.09.15-.19.29-.29.43-5.09 1-10.47 1.78-14.69 2.3 2.9 10.45 14 19 12.81 25.37l-32.57 6.65a25.73 25.73 0 0 0-.63-7.87 16.89 16.89 0 0 1-4.72 9l-2.77.57-.82-4.07c-7.15-17.16 2.81-34.74 19.13-43.82a19.82 19.82 0 0 1 12.57-8.44l4.07-.83c10.775-2.22 21.31 4.715 23.53 15.49z" fill="#3f3f3f"/><path d="M346.67 525.34l.48-10.84a35 35 0 0 1 16.32-4.13c-7.84 6.41-6.86 18.76-12.17 27.38a21 21 0 0 1-15.44 9.72l-6.55 4a35.24 35.24 0 0 1 7.43-28.57 33.88 33.88 0 0 1 6.26-5.82c1.6 4.16 3.67 8.26 3.67 8.26z" fill="#f2f2f2"/><path d="M362.6 551.74H134.21a1.19 1.19 0 1 1 0-2.38H362.6a1.19 1.19 0 0 1 0 2.38z" class="W"/></svg>